[img]http://img827.imageshack.us/img827/3271/judgedredd.jpg[/img]

[b][size=200][color=black]PLOT[/color][/size][/b]

[code]In a dystopian future, Dredd, the most famous judge 
(a cop with instant field judiciary powers) is convicted for 
a crime he did not commit while his murderous counterpart escapes.[/code]

[b][size=200][color=black]IMDB[/color][/size][/b]

[code]http://www.imdb.com/title/tt0113492/[/code]

[b][size=200][color=black]MOVIE INFO[/color][/size][/b]

[code]Judge Dredd [1995] BRRip x264 AAC-V3nom

Format                                   : MPEG-4
Format profile                           : Base Media / Version 2
Codec ID                                 : mp42
File size                                : 300 MiB
Duration                                 : 1h 36mn
Overall bit rate mode                    : Variable
Overall bit rate                         : 437 Kbps
Encoded date                             : UTC 2013-01-29 13:38:44
Tagged date                              : UTC 2013-01-29 14:12:19

Video
ID                                       : 1
Format                                   : AVC
Format/Info                              : Advanced Video Codec
Format profile                           : Main@L2.1
Format settings, CABAC                   : Yes
Format settings, ReFrames                : 4 frames
Codec ID                                 : avc1
Codec ID/Info                            : Advanced Video Coding
Duration                                 : 1h 36mn
Bit rate mode                            : Variable
Bit rate                                 : 336 Kbps
Width                                    : 640 pixels
Height                                   : 272 pixels
Display aspect ratio                     : 2.35:1
Frame rate mode                          : Variable
Frame rate                               : 23.976 fps
Minimum frame rate                       : 5.994 fps
Maximum frame rate                       : 23.981 fps
Color space                              : YUV
Chroma subsampling                       : 4:2:0
Bit depth                                : 8 bits
Scan type                                : Progressive
Bits/(Pixel*Frame)                       : 0.081
Stream size                              : 231 MiB (77%)
Writing library                          : x264 core 112

Audio
ID                                       : 2
Format                                   : AAC
Format/Info                              : Advanced Audio Codec
Format profile                           : LC
Codec ID                                 : 40
Duration                                 : 1h 36mn
Bit rate mode                            : Variable
Bit rate                                 : 96.0 Kbps
Maximum bit rate                         : 162 Kbps
Channel(s)                               : 2 channels
Channel positions                        : Front: L R
Sampling rate                            : 48.0 KHz
Compression mode                         : Lossy
Delay relative to video                  : 209ms
Stream size                              : 65.8 MiB (22%)
Language                                 : English
Encoded date                             : UTC 2013-01-29 13:38:44
Tagged date                              : UTC 2013-01-29 14:12:13[/code]

[b][size=200][color=black]SOURCE[/color][/size][/b]

[code]Judge Dredd (1995) 720p BrRip x264 - YIFY(Thanks)[/code]

[b][size=200][color=black]SCREENSHOTS[/color][/size][/b]

[img]http://img534.imageshack.us/img534/9012/judgedredd1995brripx264.jpg[/img]

[img]http://kastatic.com/i2/users/133df62bbf28e62494bb17fe11078f1a.gif[/img][img]http://kastatic.com/i2/users/133df62bbf28e62494bb17fe11078f1a.gif[/img]